<svg xmlns="http://www.w3.org/2000/svg" xmlns:xlink="http://www.w3.org/1999/xlink" viewBox="0 0 362.09 362.18"><defs><style>.cls-1{fill:#333;}.cls-2{fill:url(#radial-gradient);}</style><radialGradient id="radial-gradient" cx="150.89" cy="150.56" r="111.62" gradientUnits="userSpaceOnUse"><stop offset="0" stop-color="#a57fff" stop-opacity="0"/><stop offset="0.5" stop-color="#fff" stop-opacity="0"/><stop offset="1" stop-color="#a57fff"/></radialGradient></defs><title>Artboard 5</title><g id="logo"><g id="frame"><path class="cls-1" d="M53.09,265.53c-4.43-4.4-9-8.66-13.25-13.22A146.91,146.91,0,0,1,13.16,212.1,149,149,0,0,1,0,153.63a145.88,145.88,0,0,1,11.52-60.5A151.82,151.82,0,0,1,40,48.61,149.6,149.6,0,0,1,138.57.49a147.42,147.42,0,0,1,58.91,7.1,151.32,151.32,0,0,1,68,46A149.84,149.84,0,0,1,292,201.95a152.15,152.15,0,0,1-15.4,30.64c-.57.87-1,1.85-1.47,2.78l-9.45,12.43c-.57.49-1.16,1-1.71,1.49-7.37,6.89-14.37,14.23-22.16,20.6-16.19,13.24-34.86,21.71-55.11,26.75a150.34,150.34,0,0,1-49,3.88,145,145,0,0,1-54.6-15.61c-6-3.06-11.72-6.6-17.56-9.91Zm30-26.28c49.77,37.29,118.89,27.68,156.08-21.36,37.57-49.54,27.86-118.72-21.34-156C168.16,24.3,99.49,34.07,61.84,83.17,24.46,131.92,34.25,202.25,83.11,239.25Z"/></g><path id="handle" d="M332.91,362.61l-7.49,0c-3.88-1.34-8.25-2-11.51-4.19a114.71,114.71,0,0,1-15.35-13c-13.53-13.26-26.82-26.77-40.21-40.18q-8.16-8.17-16.31-16.34a12.6,12.6,0,0,1-1.11-1.57,163.28,163.28,0,0,0,45.76-45.77c1.72,1.59,3.4,3.07,5,4.64q18.71,18.63,37.37,37.3,12.51,12.57,24.86,25.31c4.14,4.28,6.13,9.71,7.44,15.41.15.65.36,1.28.55,1.92v7.52a9.17,9.17,0,0,0-.47,1.35c-1.86,10-6.92,18-15.84,22.91C341.69,360.09,337.15,361.08,332.91,362.61Z"/><path id="glass" class="cls-2" d="M262.55,150.9c.14,61.18-50,111.47-111.65,111.24C88.86,261.9,39.38,213.25,39.23,151A111.54,111.54,0,0,1,150.86,39C212.58,38.89,262.09,88.82,262.55,150.9Z"/><path d="M150.61,93.4a3.05,3.05,0,0,1-1.37,2.79c-26.78,20.23-81.88,63.89-81.88,63.89l-1.43,63.38s12,15.07,27.65,23.1l-.26-87.18,57.36-62.86s-17.6,44.26-25,65.48c0,0-2.65,96.65-2.65,96.65,32.65,8.94,58.78-.77,58.78-.77s-2.65-95.79-2.47-95.32l-26.66-66L212.14,160l1.45,83c14.92-8.58,26.92-25.72,26.92-25.72,0-19.75,0-58.64,0-58.64s-58.1-42.59-86.4-62.43a3.33,3.33,0,0,1-1.62-3.12q.05-6.94,0-13.88s12.93-1.1,19.56-1.8l1.1-1.2-20.54-7.76,0-1.34a.91.91,0,0,0-.94-.93,1,1,0,0,0-1,1q0,6,0,12.06S150.54,89.29,150.61,93.4Z"/></g></svg>